<svg id="Capa_1" data-name="Capa 1" xmlns="http://www.w3.org/2000/svg" viewBox="0 0 841.89 595.28"><defs><style>.cls-1,.cls-2{fill:#1d1d1b;}.cls-2{font-size:75.77px;font-family:Century;}</style></defs><title>Logo KZC para lopez</title><path class="cls-1" d="M534.51,253.42l7.2-14.62,6.47.06,2.16,61.06-6.87-.05q-6.57-25.81-16.72-38.1-12.6-15.39-30.24-15.54-19.1-.16-31.23,16.77T452.8,320.56q-.29,34.17,13.32,52.23,11.56,15.29,32.7,15.46,18.46.15,31.08-11.59T546.51,341l7.29.06q-3.4,27.06-18.92,41.5T496,396.84A66.29,66.29,0,0,1,461.23,387q-15.78-9.67-25.12-27.66A82.54,82.54,0,0,1,427,320a95.13,95.13,0,0,1,10.15-42.5q10-19.82,25.33-29.7a59.13,59.13,0,0,1,33-9.73,55.11,55.11,0,0,1,19.05,3.55Q523.71,245.13,534.51,253.42Z"/><path class="cls-1" d="M483.69,387.53a25.21,25.21,0,0,1-12.83-3.25q-5.42-3.19-10.43-10.77l-57.81-86.58L385,304.74l48,71.66a8.85,8.85,0,0,1,1.45,4.71c0,1.73-1.16,3.17-3.44,4.31s-6.83,1.68-13.67,1.63l-9.4-.07-.06,9.27,82.46.6.07-9.28Z"/><path class="cls-1" d="M329.15,209h0l-.91,125.94,72.24-73.44-.05-.08,42.66-43.94a60.56,60.56,0,0,1,16.78-12.24q9.06-4.38,16.6-4.33l5.81,0,.07-9.27-75.05-.54-.07,9.27,5.07,0q9.27.06,13.33,2.81a8.19,8.19,0,0,1,4,7.08q0,5.69-6,12.07l-69.4,73.05.08-10.91h.4l.07-65.16.06-8.86A15.49,15.49,0,0,1,355,209h-.16l.12-107.82-5.29-8.34-111.93,71,33,58.88,7.78-4.93q-9.18-20.37-9.7-35.7t7.19-26.3q5.63-8.1,19.54-16.92l33.93-21.52Z"/><path class="cls-1" d="M356.24,383.64c-1.64-1.33-2.45-3.39-2.43-6.2l.3-41.61L328.21,362l-.11,15.31a8.28,8.28,0,0,1-3,6.59q-3,2.52-9.16,2.47l-16.08-.12-.06,9.28,83.58.6.06-9.27-17.8-.13A15.25,15.25,0,0,1,356.24,383.64Z"/><text class="cls-2" transform="translate(227.3 479.23)">RENDERS</text></svg>